<svg xmlns="http://www.w3.org/2000/svg" xmlns:xlink="http://www.w3.org/1999/xlink" viewBox="0 0 117.58 69.77"><defs><style>.cls-1,.cls-2,.cls-3,.cls-4,.cls-5,.cls-6,.cls-7{stroke:#000;stroke-miterlimit:10;}.cls-1{fill:url(#linear-gradient);}.cls-2{fill:url(#linear-gradient-2);}.cls-3{fill:url(#linear-gradient-3);}.cls-4{fill:url(#linear-gradient-4);}.cls-5{fill:url(#linear-gradient-5);}.cls-6{fill:url(#linear-gradient-6);}.cls-7{fill:url(#linear-gradient-7);}</style><linearGradient id="linear-gradient" x1="10.49" y1="34.09" x2="111.18" y2="49.06" gradientUnits="userSpaceOnUse"><stop offset="0" stop-color="#a894c6"/><stop offset="0.08" stop-color="#b09ecc"/><stop offset="0.21" stop-color="#c7bada"/><stop offset="0.37" stop-color="#ece7f2"/><stop offset="0.46" stop-color="#fff"/><stop offset="0.53" stop-color="#f5f3f8"/><stop offset="0.68" stop-color="#dbd2e7"/><stop offset="0.87" stop-color="#b09dca"/><stop offset="0.96" stop-color="#9a81bb"/></linearGradient><linearGradient id="linear-gradient-2" x1="1.4" y1="37.9" x2="114.15" y2="37.9" xlink:href="#linear-gradient"/><linearGradient id="linear-gradient-3" x1="51.68" y1="7.67" x2="63.88" y2="26.02" gradientUnits="userSpaceOnUse"><stop offset="0" stop-color="#9b95c8"/><stop offset="0.39" stop-color="#7d70b3"/><stop offset="0.43" stop-color="#7c6db1"/><stop offset="0.7" stop-color="#765fa9"/><stop offset="0.93" stop-color="#745aa6"/></linearGradient><linearGradient id="linear-gradient-4" x1="41.84" y1="2.92" x2="55.83" y2="23.97" gradientUnits="userSpaceOnUse"><stop offset="0" stop-color="#c0c9e6"/><stop offset="0.35" stop-color="#7964b4"/><stop offset="0.61" stop-color="#765eab"/><stop offset="0.93" stop-color="#745aa6"/></linearGradient><linearGradient id="linear-gradient-5" x1="60.67" y1="13.22" x2="72.52" y2="31.05" gradientUnits="userSpaceOnUse"><stop offset="0" stop-color="#a5a1cf"/><stop offset="0.34" stop-color="#8477b7"/><stop offset="0.61" stop-color="#7c68ae"/><stop offset="0.93" stop-color="#745aa6"/></linearGradient><linearGradient id="linear-gradient-6" x1="70.25" y1="23.33" x2="81.69" y2="40.55" gradientUnits="userSpaceOnUse"><stop offset="0" stop-color="#907fbb"/><stop offset="0" stop-color="#978ac2"/><stop offset="0" stop-color="#a39bcc"/><stop offset="0" stop-color="#aba6d3"/><stop offset="0" stop-color="#b0add7"/><stop offset="0" stop-color="#b1afd8"/><stop offset="0.06" stop-color="#a7a2d0"/><stop offset="0.18" stop-color="#8b80bc"/><stop offset="0.25" stop-color="#7a6bb0"/><stop offset="0.6" stop-color="#765fa9"/><stop offset="0.93" stop-color="#745aa6"/></linearGradient><linearGradient id="linear-gradient-7" x1="60.62" y1="23.1" x2="57.71" y2="47.42" gradientUnits="userSpaceOnUse"><stop offset="0" stop-color="#ababd7"/><stop offset="0.36" stop-color="#7958b9"/><stop offset="0.64" stop-color="#7659ac"/><stop offset="0.91" stop-color="#745aa6"/></linearGradient></defs><g id="Layer_2" data-name="Layer 2"><g id="Layer_2-2" data-name="Layer 2"><polygon class="cls-1" points="116.37 14.12 115.6 14.51 5.29 69.02 90.45 61.03 116.37 14.12"/><polygon class="cls-2" points="114.15 10.58 1.4 65.23 32.75 17.13 114.15 10.58"/><rect class="cls-3" x="54.42" y="5.85" width="6.72" height="21.99"/><rect class="cls-4" x="45.48" y="0.5" width="6.72" height="25.89"/><rect class="cls-5" x="63.19" y="11.54" width="6.8" height="21.19"/><path class="cls-6" d="M72.47,40.1a3.33,3.33,0,0,1,.55.64l.87.24a14.63,14.63,0,0,1,4.5,1.76V22.14H72.05v17.3Z"/><path class="cls-7" d="M79.34,47.55c1.47,1.63,5.34.8,8.37-.15L77.8,58.52,65.5,47.72c3.64.8,7.23,1.16,8.2-.32,2.17-3.3-8-16.7-19.33-17.64-14.26-1.19-25.46,17.77-26.45,17s7.21-21,23.92-22.08c11.82-.74,21,8.6,23.4,12.09C78.3,41.23,78.66,44,78.66,44,78.88,45.74,78.61,46.74,79.34,47.55Z"/></g></g></svg>