<?xml version="1.0" encoding="UTF-8" standalone="no"?><svg xmlns="http://www.w3.org/2000/svg" xmlns:xlink="http://www.w3.org/1999/xlink" contentScriptType="application/ecmascript" contentStyleType="text/css" height="390px" preserveAspectRatio="none" style="width:2139px;height:390px;" version="1.1" viewBox="0 0 2139 390" width="2139px" zoomAndPan="magnify"><defs><filter height="300%" id="f17vk3xlp6zru1" width="300%" x="-1" y="-1"><feGaussianBlur result="blurOut" stdDeviation="2.0"/><feColorMatrix in="blurOut" result="blurOut2" type="matrix" values="0 0 0 0 0 0 0 0 0 0 0 0 0 0 0 0 0 0 .4 0"/><feOffset dx="4.0" dy="4.0" in="blurOut2" result="blurOut3"/><feBlend in="SourceGraphic" in2="blurOut3" mode="normal"/></filter></defs><g><!--MD5=[f4e70ef68289585296b9045165e58692]
cluster controllers--><polygon fill="#FFFFFF" filter="url(#f17vk3xlp6zru1)" points="16,6,108,6,115,28.2969,2122,28.2969,2122,383,16,383,16,6" style="stroke:#000000;stroke-width:1.5;"/><line style="stroke:#000000;stroke-width:1.5;" x1="16" x2="115" y1="28.2969" y2="28.2969"/><text fill="#000000" font-family="sans-serif" font-size="14" font-weight="bold" lengthAdjust="spacing" textLength="86" x="20" y="20.9951">controllers</text><!--MD5=[7442f3b126ee602ae02566c1a49e158a]
cluster api--><polygon fill="#FFFFFF" filter="url(#f17vk3xlp6zru1)" points="1512,49,1541,49,1548,71.2969,2098,71.2969,2098,352.5,1512,352.5,1512,49" style="stroke:#000000;stroke-width:1.5;"/><line style="stroke:#000000;stroke-width:1.5;" x1="1512" x2="1548" y1="71.2969" y2="71.2969"/><text fill="#000000" font-family="sans-serif" font-size="14" font-weight="bold" lengthAdjust="spacing" textLength="23" x="1516" y="63.9951">api</text><!--MD5=[3dcf69e4e87a10af00fce8354034ba4c]
cluster presentation--><polygon fill="#FFFFFF" filter="url(#f17vk3xlp6zru1)" points="40,68.5,147,68.5,154,90.7969,1488,90.7969,1488,359,40,359,40,68.5" style="stroke:#000000;stroke-width:1.5;"/><line style="stroke:#000000;stroke-width:1.5;" x1="40" x2="154" y1="90.7969" y2="90.7969"/><text fill="#000000" font-family="sans-serif" font-size="14" font-weight="bold" lengthAdjust="spacing" textLength="101" x="44" y="83.4951">presentation</text><!--MD5=[ba4b3a21b82b5b1922f6a1f65058143c]
class AccountController--><rect codeLine="3" fill="#FEFECE" filter="url(#f17vk3xlp6zru1)" height="99.2188" id="AccountController" style="stroke:#A80036;stroke-width:1.5;" width="165" x="1916.5" y="97"/><ellipse cx="1940.95" cy="113" fill="#ADD1B2" rx="11" ry="11" style="stroke:#A80036;stroke-width:1.0;"/><path d="M1943.9188,118.6406 Q1943.3406,118.9375 1942.7,119.0781 Q1942.0594,119.2344 1941.3563,119.2344 Q1938.8563,119.2344 1937.5281,117.5938 Q1936.2156,115.9375 1936.2156,112.8125 Q1936.2156,109.6875 1937.5281,108.0313 Q1938.8563,106.375 1941.3563,106.375 Q1942.0594,106.375 1942.7,106.5313 Q1943.3563,106.6875 1943.9188,106.9844 L1943.9188,109.7031 Q1943.2938,109.125 1942.7,108.8594 Q1942.1063,108.5781 1941.4813,108.5781 Q1940.1375,108.5781 1939.45,109.6563 Q1938.7625,110.7188 1938.7625,112.8125 Q1938.7625,114.9063 1939.45,115.9844 Q1940.1375,117.0469 1941.4813,117.0469 Q1942.1063,117.0469 1942.7,116.7813 Q1943.2938,116.5 1943.9188,115.9219 L1943.9188,118.6406 Z " fill="#000000"/><text fill="#000000" font-family="sans-serif" font-size="12" lengthAdjust="spacing" textLength="112" x="1957.05" y="117.1543">AccountController</text><line style="stroke:#A80036;stroke-width:1.5;" x1="1917.5" x2="2080.5" y1="129" y2="129"/><line style="stroke:#A80036;stroke-width:1.5;" x1="1917.5" x2="2080.5" y1="137" y2="137"/><ellipse cx="1927.5" cy="148" fill="#84BE84" rx="3" ry="3" style="stroke:#038048;stroke-width:1.0;"/><text fill="#000000" font-family="sans-serif" font-size="11" lengthAdjust="spacing" textLength="132" x="1936.5" y="151.2104">isPasswordValid(): void</text><ellipse cx="1927.5" cy="160.8047" fill="#84BE84" rx="3" ry="3" style="stroke:#038048;stroke-width:1.0;"/><text fill="#000000" font-family="sans-serif" font-size="11" lengthAdjust="spacing" textLength="139" x="1936.5" y="164.0151">changeUsername(): void</text><ellipse cx="1927.5" cy="173.6094" fill="#84BE84" rx="3" ry="3" style="stroke:#038048;stroke-width:1.0;"/><text fill="#000000" font-family="sans-serif" font-size="11" lengthAdjust="spacing" textLength="136" x="1936.5" y="176.8198">changePassword(): void</text><ellipse cx="1927.5" cy="186.4141" fill="#84BE84" rx="3" ry="3" style="stroke:#038048;stroke-width:1.0;"/><text fill="#000000" font-family="sans-serif" font-size="11" lengthAdjust="spacing" textLength="83" x="1936.5" y="189.6245">validate(): void</text><!--MD5=[d294ba32a04a115d0df5579a3438640d]
class DataController--><rect codeLine="10" fill="#FEFECE" filter="url(#f17vk3xlp6zru1)" height="124.8281" id="DataController" style="stroke:#A80036;stroke-width:1.5;" width="192" x="1689" y="84"/><ellipse cx="1735.25" cy="100" fill="#A9DCDF" rx="11" ry="11" style="stroke:#A80036;stroke-width:1.0;"/><path d="M1735.3594,95.3438 L1734.2031,100.4219 L1736.5313,100.4219 L1735.3594,95.3438 Z M1733.875,93.1094 L1736.8594,93.1094 L1740.2188,105.5 L1737.7656,105.5 L1737,102.4375 L1733.7188,102.4375 L1732.9688,105.5 L1730.5313,105.5 L1733.875,93.1094 Z " fill="#000000"/><text fill="#000000" font-family="sans-serif" font-size="12" font-style="italic" lengthAdjust="spacing" textLength="91" x="1755.75" y="104.1543">DataController</text><line style="stroke:#A80036;stroke-width:1.5;" x1="1690" x2="1880" y1="116" y2="116"/><line style="stroke:#A80036;stroke-width:1.5;" x1="1690" x2="1880" y1="124" y2="124"/><ellipse cx="1700" cy="135" fill="#84BE84" rx="3" ry="3" style="stroke:#038048;stroke-width:1.0;"/><text fill="#000000" font-family="sans-serif" font-size="11" lengthAdjust="spacing" textLength="57" x="1709" y="138.2104">get(): void</text><ellipse cx="1700" cy="147.8047" fill="#84BE84" rx="3" ry="3" style="stroke:#038048;stroke-width:1.0;"/><text fill="#000000" font-family="sans-serif" font-size="11" lengthAdjust="spacing" textLength="149" x="1709" y="151.0151">getRow(int $number): void</text><ellipse cx="1700" cy="160.6094" fill="#84BE84" rx="3" ry="3" style="stroke:#038048;stroke-width:1.0;"/><text fill="#000000" font-family="sans-serif" font-size="11" lengthAdjust="spacing" textLength="64" x="1709" y="163.8198">post(): void</text><ellipse cx="1700" cy="173.4141" fill="#84BE84" rx="3" ry="3" style="stroke:#038048;stroke-width:1.0;"/><text fill="#000000" font-family="sans-serif" font-size="11" lengthAdjust="spacing" textLength="74" x="1709" y="176.6245">delete(): void</text><ellipse cx="1700" cy="186.2188" fill="#84BE84" rx="3" ry="3" style="stroke:#038048;stroke-width:1.0;"/><text fill="#000000" font-family="sans-serif" font-size="11" lengthAdjust="spacing" textLength="166" x="1709" y="189.4292">deleteRow(int $number): void</text><rect fill="#F24D5C" height="6" style="stroke:#C82930;stroke-width:1.0;" width="6" x="1697" y="196.0234"/><text fill="#000000" font-family="sans-serif" font-size="11" lengthAdjust="spacing" textLength="83" x="1709" y="202.2339">validate(): void</text><!--MD5=[4ad285e8a4d30da0715eb6c2e46e9cf2]
class apiEurostatController--><rect codeLine="19" fill="#FEFECE" filter="url(#f17vk3xlp6zru1)" height="60.8047" id="apiEurostatController" style="stroke:#A80036;stroke-width:1.5;" width="228" x="1571" y="275.5"/><ellipse cx="1623.25" cy="291.5" fill="#ADD1B2" rx="11" ry="11" style="stroke:#A80036;stroke-width:1.0;"/><path d="M1626.2188,297.1406 Q1625.6406,297.4375 1625,297.5781 Q1624.3594,297.7344 1623.6563,297.7344 Q1621.1563,297.7344 1619.8281,296.0938 Q1618.5156,294.4375 1618.5156,291.3125 Q1618.5156,288.1875 1619.8281,286.5313 Q1621.1563,284.875 1623.6563,284.875 Q1624.3594,284.875 1625,285.0313 Q1625.6563,285.1875 1626.2188,285.4844 L1626.2188,288.2031 Q1625.5938,287.625 1625,287.3594 Q1624.4063,287.0781 1623.7813,287.0781 Q1622.4375,287.0781 1621.75,288.1563 Q1621.0625,289.2188 1621.0625,291.3125 Q1621.0625,293.4063 1621.75,294.4844 Q1622.4375,295.5469 1623.7813,295.5469 Q1624.4063,295.5469 1625,295.2813 Q1625.5938,295 1626.2188,294.4219 L1626.2188,297.1406 Z " fill="#000000"/><text fill="#000000" font-family="sans-serif" font-size="12" lengthAdjust="spacing" textLength="115" x="1643.75" y="295.6543">EurostatController</text><line style="stroke:#A80036;stroke-width:1.5;" x1="1572" x2="1798" y1="307.5" y2="307.5"/><line style="stroke:#A80036;stroke-width:1.5;" x1="1572" x2="1798" y1="315.5" y2="315.5"/><polygon fill="#FFFF44" points="1582,321.5,1586,325.5,1582,329.5,1578,325.5" style="stroke:#B38D22;stroke-width:1.0;"/><text fill="#000000" font-family="sans-serif" font-size="11" lengthAdjust="spacing" textLength="202" x="1591" y="329.7104">getRepository(): EurostatRepository</text><!--MD5=[5103e3471bf31fadd75905833dcba617]
class LoginController--><rect codeLine="64" fill="#FEFECE" filter="url(#f17vk3xlp6zru1)" height="73.6094" id="LoginController" style="stroke:#A80036;stroke-width:1.5;" width="126" x="1528" y="109.5"/><ellipse cx="1543" cy="125.5" fill="#ADD1B2" rx="11" ry="11" style="stroke:#A80036;stroke-width:1.0;"/><path d="M1545.9688,131.1406 Q1545.3906,131.4375 1544.75,131.5781 Q1544.1094,131.7344 1543.4063,131.7344 Q1540.9063,131.7344 1539.5781,130.0938 Q1538.2656,128.4375 1538.2656,125.3125 Q1538.2656,122.1875 1539.5781,120.5313 Q1540.9063,118.875 1543.4063,118.875 Q1544.1094,118.875 1544.75,119.0313 Q1545.4063,119.1875 1545.9688,119.4844 L1545.9688,122.2031 Q1545.3438,121.625 1544.75,121.3594 Q1544.1563,121.0781 1543.5313,121.0781 Q1542.1875,121.0781 1541.5,122.1563 Q1540.8125,123.2188 1540.8125,125.3125 Q1540.8125,127.4063 1541.5,128.4844 Q1542.1875,129.5469 1543.5313,129.5469 Q1544.1563,129.5469 1544.75,129.2813 Q1545.3438,129 1545.9688,128.4219 L1545.9688,131.1406 Z " fill="#000000"/><text fill="#000000" font-family="sans-serif" font-size="12" lengthAdjust="spacing" textLength="94" x="1557" y="129.6543">LoginController</text><line style="stroke:#A80036;stroke-width:1.5;" x1="1529" x2="1653" y1="141.5" y2="141.5"/><line style="stroke:#A80036;stroke-width:1.5;" x1="1529" x2="1653" y1="149.5" y2="149.5"/><ellipse cx="1539" cy="160.5" fill="#84BE84" rx="3" ry="3" style="stroke:#038048;stroke-width:1.0;"/><text fill="#000000" font-family="sans-serif" font-size="11" lengthAdjust="spacing" textLength="64" x="1548" y="163.7104">post(): void</text><ellipse cx="1539" cy="173.3047" fill="#84BE84" rx="3" ry="3" style="stroke:#038048;stroke-width:1.0;"/><text fill="#000000" font-family="sans-serif" font-size="11" lengthAdjust="spacing" textLength="69" x="1548" y="176.5151">index(): void</text><!--MD5=[5461bf26a5343e7f0d0c40434ad0322c]
class apiWhoController--><rect codeLine="28" fill="#FEFECE" filter="url(#f17vk3xlp6zru1)" height="60.8047" id="apiWhoController" style="stroke:#A80036;stroke-width:1.5;" width="203" x="1834.5" y="275.5"/><ellipse cx="1887.75" cy="291.5" fill="#ADD1B2" rx="11" ry="11" style="stroke:#A80036;stroke-width:1.0;"/><path d="M1890.7188,297.1406 Q1890.1406,297.4375 1889.5,297.5781 Q1888.8594,297.7344 1888.1563,297.7344 Q1885.6563,297.7344 1884.3281,296.0938 Q1883.0156,294.4375 1883.0156,291.3125 Q1883.0156,288.1875 1884.3281,286.5313 Q1885.6563,284.875 1888.1563,284.875 Q1888.8594,284.875 1889.5,285.0313 Q1890.1563,285.1875 1890.7188,285.4844 L1890.7188,288.2031 Q1890.0938,287.625 1889.5,287.3594 Q1888.9063,287.0781 1888.2813,287.0781 Q1886.9375,287.0781 1886.25,288.1563 Q1885.5625,289.2188 1885.5625,291.3125 Q1885.5625,293.4063 1886.25,294.4844 Q1886.9375,295.5469 1888.2813,295.5469 Q1888.9063,295.5469 1889.5,295.2813 Q1890.0938,295 1890.7188,294.4219 L1890.7188,297.1406 Z " fill="#000000"/><text fill="#000000" font-family="sans-serif" font-size="12" lengthAdjust="spacing" textLength="88" x="1908.25" y="295.6543">WhoController</text><line style="stroke:#A80036;stroke-width:1.5;" x1="1835.5" x2="2036.5" y1="307.5" y2="307.5"/><line style="stroke:#A80036;stroke-width:1.5;" x1="1835.5" x2="2036.5" y1="315.5" y2="315.5"/><polygon fill="#FFFF44" points="1845.5,321.5,1849.5,325.5,1845.5,329.5,1841.5,325.5" style="stroke:#B38D22;stroke-width:1.0;"/><text fill="#000000" font-family="sans-serif" font-size="11" lengthAdjust="spacing" textLength="177" x="1854.5" y="329.7104">getRepository(): WhoRepository</text><!--MD5=[a63b565222d32c1f09216480b19ec5f7]
class AdministrationTableController--><rect codeLine="46" fill="#FEFECE" filter="url(#f17vk3xlp6zru1)" height="86.4141" id="AdministrationTableController" style="stroke:#A80036;stroke-width:1.5;" width="217" x="605.5" y="103.5"/><ellipse cx="620.5" cy="119.5" fill="#ADD1B2" rx="11" ry="11" style="stroke:#A80036;stroke-width:1.0;"/><path d="M623.4688,125.1406 Q622.8906,125.4375 622.25,125.5781 Q621.6094,125.7344 620.9063,125.7344 Q618.4063,125.7344 617.0781,124.0938 Q615.7656,122.4375 615.7656,119.3125 Q615.7656,116.1875 617.0781,114.5313 Q618.4063,112.875 620.9063,112.875 Q621.6094,112.875 622.25,113.0313 Q622.9063,113.1875 623.4688,113.4844 L623.4688,116.2031 Q622.8438,115.625 622.25,115.3594 Q621.6563,115.0781 621.0313,115.0781 Q619.6875,115.0781 619,116.1563 Q618.3125,117.2188 618.3125,119.3125 Q618.3125,121.4063 619,122.4844 Q619.6875,123.5469 621.0313,123.5469 Q621.6563,123.5469 622.25,123.2813 Q622.8438,123 623.4688,122.4219 L623.4688,125.1406 Z " fill="#000000"/><text fill="#000000" font-family="sans-serif" font-size="12" lengthAdjust="spacing" textLength="185" x="634.5" y="123.6543">AdministrationTableController</text><line style="stroke:#A80036;stroke-width:1.5;" x1="606.5" x2="821.5" y1="135.5" y2="135.5"/><line style="stroke:#A80036;stroke-width:1.5;" x1="606.5" x2="821.5" y1="143.5" y2="143.5"/><polygon fill="#FFFF44" points="616.5,149.5,620.5,153.5,616.5,157.5,612.5,153.5" style="stroke:#B38D22;stroke-width:1.0;"/><text fill="#000000" font-family="sans-serif" font-size="11" font-style="italic" lengthAdjust="spacing" textLength="160" x="625.5" y="157.7104">getRepository(): Repository;</text><text fill="#000000" font-family="sans-serif" font-size="11" font-style="italic" lengthAdjust="spacing" textLength="107" x="625.5" y="170.5151">getParam(): string;</text><ellipse cx="616.5" cy="180.1094" fill="#84BE84" rx="3" ry="3" style="stroke:#038048;stroke-width:1.0;"/><text fill="#000000" font-family="sans-serif" font-size="11" lengthAdjust="spacing" textLength="69" x="625.5" y="183.3198">index(): void</text><!--MD5=[19f7aee2f2a464d8e31976996a21d73e]
class AdministrationEurostatController--><rect codeLine="42" fill="#FEFECE" filter="url(#f17vk3xlp6zru1)" height="73.6094" id="AdministrationEurostatController" style="stroke:#A80036;stroke-width:1.5;" width="237" x="557.5" y="269"/><ellipse cx="572.5" cy="285" fill="#ADD1B2" rx="11" ry="11" style="stroke:#A80036;stroke-width:1.0;"/><path d="M575.4688,290.6406 Q574.8906,290.9375 574.25,291.0781 Q573.6094,291.2344 572.9063,291.2344 Q570.4063,291.2344 569.0781,289.5938 Q567.7656,287.9375 567.7656,284.8125 Q567.7656,281.6875 569.0781,280.0313 Q570.4063,278.375 572.9063,278.375 Q573.6094,278.375 574.25,278.5313 Q574.9063,278.6875 575.4688,278.9844 L575.4688,281.7031 Q574.8438,281.125 574.25,280.8594 Q573.6563,280.5781 573.0313,280.5781 Q571.6875,280.5781 571,281.6563 Q570.3125,282.7188 570.3125,284.8125 Q570.3125,286.9063 571,287.9844 Q571.6875,289.0469 573.0313,289.0469 Q573.6563,289.0469 574.25,288.7813 Q574.8438,288.5 575.4688,287.9219 L575.4688,290.6406 Z " fill="#000000"/><text fill="#000000" font-family="sans-serif" font-size="12" lengthAdjust="spacing" textLength="205" x="586.5" y="289.1543">AdministrationEurostatController</text><line style="stroke:#A80036;stroke-width:1.5;" x1="558.5" x2="793.5" y1="301" y2="301"/><line style="stroke:#A80036;stroke-width:1.5;" x1="558.5" x2="793.5" y1="309" y2="309"/><polygon fill="#FFFF44" points="568.5,315,572.5,319,568.5,323,564.5,319" style="stroke:#B38D22;stroke-width:1.0;"/><text fill="#000000" font-family="sans-serif" font-size="11" lengthAdjust="spacing" textLength="202" x="577.5" y="323.2104">getRepository(): EurostatRepository</text><ellipse cx="568.5" cy="332.8047" fill="#84BE84" rx="3" ry="3" style="stroke:#038048;stroke-width:1.0;"/><text fill="#000000" font-family="sans-serif" font-size="11" lengthAdjust="spacing" textLength="104" x="577.5" y="336.0151">getParam(): string</text><!--MD5=[adacef8b9b5a106c1184d744f03b5735]
class AdministrationWhoController--><rect codeLine="51" fill="#FEFECE" filter="url(#f17vk3xlp6zru1)" height="73.6094" id="AdministrationWhoController" style="stroke:#A80036;stroke-width:1.5;" width="210" x="830" y="269"/><ellipse cx="845" cy="285" fill="#ADD1B2" rx="11" ry="11" style="stroke:#A80036;stroke-width:1.0;"/><path d="M847.9688,290.6406 Q847.3906,290.9375 846.75,291.0781 Q846.1094,291.2344 845.4063,291.2344 Q842.9063,291.2344 841.5781,289.5938 Q840.2656,287.9375 840.2656,284.8125 Q840.2656,281.6875 841.5781,280.0313 Q842.9063,278.375 845.4063,278.375 Q846.1094,278.375 846.75,278.5313 Q847.4063,278.6875 847.9688,278.9844 L847.9688,281.7031 Q847.3438,281.125 846.75,280.8594 Q846.1563,280.5781 845.5313,280.5781 Q844.1875,280.5781 843.5,281.6563 Q842.8125,282.7188 842.8125,284.8125 Q842.8125,286.9063 843.5,287.9844 Q844.1875,289.0469 845.5313,289.0469 Q846.1563,289.0469 846.75,288.7813 Q847.3438,288.5 847.9688,287.9219 L847.9688,290.6406 Z " fill="#000000"/><text fill="#000000" font-family="sans-serif" font-size="12" lengthAdjust="spacing" textLength="178" x="859" y="289.1543">AdministrationWhoController</text><line style="stroke:#A80036;stroke-width:1.5;" x1="831" x2="1039" y1="301" y2="301"/><line style="stroke:#A80036;stroke-width:1.5;" x1="831" x2="1039" y1="309" y2="309"/><polygon fill="#FFFF44" points="841,315,845,319,841,323,837,319" style="stroke:#B38D22;stroke-width:1.0;"/><text fill="#000000" font-family="sans-serif" font-size="11" lengthAdjust="spacing" textLength="177" x="850" y="323.2104">getRepository(): WhoRepository</text><ellipse cx="841" cy="332.8047" fill="#84BE84" rx="3" ry="3" style="stroke:#038048;stroke-width:1.0;"/><text fill="#000000" font-family="sans-serif" font-size="11" lengthAdjust="spacing" textLength="104" x="850" y="336.0151">getParam(): string</text><!--MD5=[e1ed3d7b3fee1b3fcdddf22435bb9f4c]
class StatisticsController--><rect codeLine="73" fill="#FEFECE" filter="url(#f17vk3xlp6zru1)" height="73.6094" id="StatisticsController" style="stroke:#A80036;stroke-width:1.5;" width="182" x="204" y="109.5"/><ellipse cx="232.95" cy="125.5" fill="#ADD1B2" rx="11" ry="11" style="stroke:#A80036;stroke-width:1.0;"/><path d="M235.9188,131.1406 Q235.3406,131.4375 234.7,131.5781 Q234.0594,131.7344 233.3563,131.7344 Q230.8563,131.7344 229.5281,130.0938 Q228.2156,128.4375 228.2156,125.3125 Q228.2156,122.1875 229.5281,120.5313 Q230.8563,118.875 233.3563,118.875 Q234.0594,118.875 234.7,119.0313 Q235.3563,119.1875 235.9188,119.4844 L235.9188,122.2031 Q235.2938,121.625 234.7,121.3594 Q234.1063,121.0781 233.4813,121.0781 Q232.1375,121.0781 231.45,122.1563 Q230.7625,123.2188 230.7625,125.3125 Q230.7625,127.4063 231.45,128.4844 Q232.1375,129.5469 233.4813,129.5469 Q234.1063,129.5469 234.7,129.2813 Q235.2938,129 235.9188,128.4219 L235.9188,131.1406 Z " fill="#000000"/><text fill="#000000" font-family="sans-serif" font-size="12" lengthAdjust="spacing" textLength="119" x="250.05" y="129.6543">StatisticsController</text><line style="stroke:#A80036;stroke-width:1.5;" x1="205" x2="385" y1="141.5" y2="141.5"/><line style="stroke:#A80036;stroke-width:1.5;" x1="205" x2="385" y1="149.5" y2="149.5"/><polygon fill="#FFFF44" points="215,155.5,219,159.5,215,163.5,211,159.5" style="stroke:#B38D22;stroke-width:1.0;"/><text fill="#000000" font-family="sans-serif" font-size="11" font-style="italic" lengthAdjust="spacing" textLength="156" x="224" y="163.7104">getRepository(): Repository</text><ellipse cx="215" cy="173.3047" fill="#84BE84" rx="3" ry="3" style="stroke:#038048;stroke-width:1.0;"/><text fill="#000000" font-family="sans-serif" font-size="11" lengthAdjust="spacing" textLength="69" x="224" y="176.5151">index(): void</text><!--MD5=[fe93d4e2108135d2f9a76f955cfba9de]
class EurostatController--><rect codeLine="58" fill="#FEFECE" filter="url(#f17vk3xlp6zru1)" height="60.8047" id="EurostatController" style="stroke:#A80036;stroke-width:1.5;" width="228" x="56" y="275.5"/><ellipse cx="108.25" cy="291.5" fill="#ADD1B2" rx="11" ry="11" style="stroke:#A80036;stroke-width:1.0;"/><path d="M111.2188,297.1406 Q110.6406,297.4375 110,297.5781 Q109.3594,297.7344 108.6563,297.7344 Q106.1563,297.7344 104.8281,296.0938 Q103.5156,294.4375 103.5156,291.3125 Q103.5156,288.1875 104.8281,286.5313 Q106.1563,284.875 108.6563,284.875 Q109.3594,284.875 110,285.0313 Q110.6563,285.1875 111.2188,285.4844 L111.2188,288.2031 Q110.5938,287.625 110,287.3594 Q109.4063,287.0781 108.7813,287.0781 Q107.4375,287.0781 106.75,288.1563 Q106.0625,289.2188 106.0625,291.3125 Q106.0625,293.4063 106.75,294.4844 Q107.4375,295.5469 108.7813,295.5469 Q109.4063,295.5469 110,295.2813 Q110.5938,295 111.2188,294.4219 L111.2188,297.1406 Z " fill="#000000"/><text fill="#000000" font-family="sans-serif" font-size="12" lengthAdjust="spacing" textLength="115" x="128.75" y="295.6543">EurostatController</text><line style="stroke:#A80036;stroke-width:1.5;" x1="57" x2="283" y1="307.5" y2="307.5"/><line style="stroke:#A80036;stroke-width:1.5;" x1="57" x2="283" y1="315.5" y2="315.5"/><polygon fill="#FFFF44" points="67,321.5,71,325.5,67,329.5,63,325.5" style="stroke:#B38D22;stroke-width:1.0;"/><text fill="#000000" font-family="sans-serif" font-size="11" lengthAdjust="spacing" textLength="202" x="76" y="329.7104">getRepository(): EurostatRepository</text><!--MD5=[9b1974af37f7abe127b161c88bfe7451]
class WhoController--><rect codeLine="77" fill="#FEFECE" filter="url(#f17vk3xlp6zru1)" height="60.8047" id="WhoController" style="stroke:#A80036;stroke-width:1.5;" width="203" x="319.5" y="275.5"/><ellipse cx="372.75" cy="291.5" fill="#ADD1B2" rx="11" ry="11" style="stroke:#A80036;stroke-width:1.0;"/><path d="M375.7188,297.1406 Q375.1406,297.4375 374.5,297.5781 Q373.8594,297.7344 373.1563,297.7344 Q370.6563,297.7344 369.3281,296.0938 Q368.0156,294.4375 368.0156,291.3125 Q368.0156,288.1875 369.3281,286.5313 Q370.6563,284.875 373.1563,284.875 Q373.8594,284.875 374.5,285.0313 Q375.1563,285.1875 375.7188,285.4844 L375.7188,288.2031 Q375.0938,287.625 374.5,287.3594 Q373.9063,287.0781 373.2813,287.0781 Q371.9375,287.0781 371.25,288.1563 Q370.5625,289.2188 370.5625,291.3125 Q370.5625,293.4063 371.25,294.4844 Q371.9375,295.5469 373.2813,295.5469 Q373.9063,295.5469 374.5,295.2813 Q375.0938,295 375.7188,294.4219 L375.7188,297.1406 Z " fill="#000000"/><text fill="#000000" font-family="sans-serif" font-size="12" lengthAdjust="spacing" textLength="88" x="393.25" y="295.6543">WhoController</text><line style="stroke:#A80036;stroke-width:1.5;" x1="320.5" x2="521.5" y1="307.5" y2="307.5"/><line style="stroke:#A80036;stroke-width:1.5;" x1="320.5" x2="521.5" y1="315.5" y2="315.5"/><polygon fill="#FFFF44" points="330.5,321.5,334.5,325.5,330.5,329.5,326.5,325.5" style="stroke:#B38D22;stroke-width:1.0;"/><text fill="#000000" font-family="sans-serif" font-size="11" lengthAdjust="spacing" textLength="177" x="339.5" y="329.7104">getRepository(): WhoRepository</text><!--MD5=[9b558f6de31cbf22e1c482969ed5db91]
class AdministrationController--><rect codeLine="39" fill="#FEFECE" filter="url(#f17vk3xlp6zru1)" height="60.8047" id="AdministrationController" style="stroke:#A80036;stroke-width:1.5;" width="183" x="896.5" y="116"/><ellipse cx="911.5" cy="132" fill="#ADD1B2" rx="11" ry="11" style="stroke:#A80036;stroke-width:1.0;"/><path d="M914.4688,137.6406 Q913.8906,137.9375 913.25,138.0781 Q912.6094,138.2344 911.9063,138.2344 Q909.4063,138.2344 908.0781,136.5938 Q906.7656,134.9375 906.7656,131.8125 Q906.7656,128.6875 908.0781,127.0313 Q909.4063,125.375 911.9063,125.375 Q912.6094,125.375 913.25,125.5313 Q913.9063,125.6875 914.4688,125.9844 L914.4688,128.7031 Q913.8438,128.125 913.25,127.8594 Q912.6563,127.5781 912.0313,127.5781 Q910.6875,127.5781 910,128.6563 Q909.3125,129.7188 909.3125,131.8125 Q909.3125,133.9063 910,134.9844 Q910.6875,136.0469 912.0313,136.0469 Q912.6563,136.0469 913.25,135.7813 Q913.8438,135.5 914.4688,134.9219 L914.4688,137.6406 Z " fill="#000000"/><text fill="#000000" font-family="sans-serif" font-size="12" lengthAdjust="spacing" textLength="151" x="925.5" y="136.1543">AdministrationController</text><line style="stroke:#A80036;stroke-width:1.5;" x1="897.5" x2="1078.5" y1="148" y2="148"/><line style="stroke:#A80036;stroke-width:1.5;" x1="897.5" x2="1078.5" y1="156" y2="156"/><ellipse cx="907.5" cy="167" fill="#84BE84" rx="3" ry="3" style="stroke:#038048;stroke-width:1.0;"/><text fill="#000000" font-family="sans-serif" font-size="11" lengthAdjust="spacing" textLength="69" x="916.5" y="170.2104">index(): void</text><!--MD5=[078efc812ec3517f16515a0cc8bfe76c]
class ErrorController--><rect codeLine="55" fill="#FEFECE" filter="url(#f17vk3xlp6zru1)" height="60.8047" id="ErrorController" style="stroke:#A80036;stroke-width:1.5;" width="192" x="1115" y="116"/><ellipse cx="1160.75" cy="132" fill="#ADD1B2" rx="11" ry="11" style="stroke:#A80036;stroke-width:1.0;"/><path d="M1163.7188,137.6406 Q1163.1406,137.9375 1162.5,138.0781 Q1161.8594,138.2344 1161.1563,138.2344 Q1158.6563,138.2344 1157.3281,136.5938 Q1156.0156,134.9375 1156.0156,131.8125 Q1156.0156,128.6875 1157.3281,127.0313 Q1158.6563,125.375 1161.1563,125.375 Q1161.8594,125.375 1162.5,125.5313 Q1163.1563,125.6875 1163.7188,125.9844 L1163.7188,128.7031 Q1163.0938,128.125 1162.5,127.8594 Q1161.9063,127.5781 1161.2813,127.5781 Q1159.9375,127.5781 1159.25,128.6563 Q1158.5625,129.7188 1158.5625,131.8125 Q1158.5625,133.9063 1159.25,134.9844 Q1159.9375,136.0469 1161.2813,136.0469 Q1161.9063,136.0469 1162.5,135.7813 Q1163.0938,135.5 1163.7188,134.9219 L1163.7188,137.6406 Z " fill="#000000"/><text fill="#000000" font-family="sans-serif" font-size="12" lengthAdjust="spacing" textLength="92" x="1181.25" y="136.1543">ErrorController</text><line style="stroke:#A80036;stroke-width:1.5;" x1="1116" x2="1306" y1="148" y2="148"/><line style="stroke:#A80036;stroke-width:1.5;" x1="1116" x2="1306" y1="156" y2="156"/><ellipse cx="1126" cy="167" fill="#84BE84" rx="3" ry="3" style="stroke:#038048;stroke-width:1.0;"/><text fill="#000000" font-family="sans-serif" font-size="11" lengthAdjust="spacing" textLength="166" x="1135" y="170.2104">index(string $message): void</text><!--MD5=[3f908ccd3a2056432adfb9e2b53696ab]
class HomeController--><rect codeLine="61" fill="#FEFECE" filter="url(#f17vk3xlp6zru1)" height="60.8047" id="HomeController" style="stroke:#A80036;stroke-width:1.5;" width="129" x="1342.5" y="116"/><ellipse cx="1357.5" cy="132" fill="#ADD1B2" rx="11" ry="11" style="stroke:#A80036;stroke-width:1.0;"/><path d="M1360.4688,137.6406 Q1359.8906,137.9375 1359.25,138.0781 Q1358.6094,138.2344 1357.9063,138.2344 Q1355.4063,138.2344 1354.0781,136.5938 Q1352.7656,134.9375 1352.7656,131.8125 Q1352.7656,128.6875 1354.0781,127.0313 Q1355.4063,125.375 1357.9063,125.375 Q1358.6094,125.375 1359.25,125.5313 Q1359.9063,125.6875 1360.4688,125.9844 L1360.4688,128.7031 Q1359.8438,128.125 1359.25,127.8594 Q1358.6563,127.5781 1358.0313,127.5781 Q1356.6875,127.5781 1356,128.6563 Q1355.3125,129.7188 1355.3125,131.8125 Q1355.3125,133.9063 1356,134.9844 Q1356.6875,136.0469 1358.0313,136.0469 Q1358.6563,136.0469 1359.25,135.7813 Q1359.8438,135.5 1360.4688,134.9219 L1360.4688,137.6406 Z " fill="#000000"/><text fill="#000000" font-family="sans-serif" font-size="12" lengthAdjust="spacing" textLength="97" x="1371.5" y="136.1543">HomeController</text><line style="stroke:#A80036;stroke-width:1.5;" x1="1343.5" x2="1470.5" y1="148" y2="148"/><line style="stroke:#A80036;stroke-width:1.5;" x1="1343.5" x2="1470.5" y1="156" y2="156"/><ellipse cx="1353.5" cy="167" fill="#84BE84" rx="3" ry="3" style="stroke:#038048;stroke-width:1.0;"/><text fill="#000000" font-family="sans-serif" font-size="11" lengthAdjust="spacing" textLength="69" x="1362.5" y="170.2104">index(): void</text><!--MD5=[6cf8a43933ea91e83233607f0f1efd5e]
class ProcessLoginController--><rect codeLine="67" fill="#FEFECE" filter="url(#f17vk3xlp6zru1)" height="60.8047" id="ProcessLoginController" style="stroke:#A80036;stroke-width:1.5;" width="176" x="1075" y="275.5"/><ellipse cx="1090" cy="291.5" fill="#ADD1B2" rx="11" ry="11" style="stroke:#A80036;stroke-width:1.0;"/><path d="M1092.9688,297.1406 Q1092.3906,297.4375 1091.75,297.5781 Q1091.1094,297.7344 1090.4063,297.7344 Q1087.9063,297.7344 1086.5781,296.0938 Q1085.2656,294.4375 1085.2656,291.3125 Q1085.2656,288.1875 1086.5781,286.5313 Q1087.9063,284.875 1090.4063,284.875 Q1091.1094,284.875 1091.75,285.0313 Q1092.4063,285.1875 1092.9688,285.4844 L1092.9688,288.2031 Q1092.3438,287.625 1091.75,287.3594 Q1091.1563,287.0781 1090.5313,287.0781 Q1089.1875,287.0781 1088.5,288.1563 Q1087.8125,289.2188 1087.8125,291.3125 Q1087.8125,293.4063 1088.5,294.4844 Q1089.1875,295.5469 1090.5313,295.5469 Q1091.1563,295.5469 1091.75,295.2813 Q1092.3438,295 1092.9688,294.4219 L1092.9688,297.1406 Z " fill="#000000"/><text fill="#000000" font-family="sans-serif" font-size="12" lengthAdjust="spacing" textLength="144" x="1104" y="295.6543">ProcessLoginController</text><line style="stroke:#A80036;stroke-width:1.5;" x1="1076" x2="1250" y1="307.5" y2="307.5"/><line style="stroke:#A80036;stroke-width:1.5;" x1="1076" x2="1250" y1="315.5" y2="315.5"/><ellipse cx="1086" cy="326.5" fill="#84BE84" rx="3" ry="3" style="stroke:#038048;stroke-width:1.0;"/><text fill="#000000" font-family="sans-serif" font-size="11" lengthAdjust="spacing" textLength="64" x="1095" y="329.7104">post(): void</text><!--MD5=[1b6fa4a4ebbc5ada58e0e50ba47c0d0a]
class ProcessLogoutController--><rect codeLine="70" fill="#FEFECE" filter="url(#f17vk3xlp6zru1)" height="60.8047" id="ProcessLogoutController" style="stroke:#A80036;stroke-width:1.5;" width="186" x="1286" y="275.5"/><ellipse cx="1301" cy="291.5" fill="#ADD1B2" rx="11" ry="11" style="stroke:#A80036;stroke-width:1.0;"/><path d="M1303.9688,297.1406 Q1303.3906,297.4375 1302.75,297.5781 Q1302.1094,297.7344 1301.4063,297.7344 Q1298.9063,297.7344 1297.5781,296.0938 Q1296.2656,294.4375 1296.2656,291.3125 Q1296.2656,288.1875 1297.5781,286.5313 Q1298.9063,284.875 1301.4063,284.875 Q1302.1094,284.875 1302.75,285.0313 Q1303.4063,285.1875 1303.9688,285.4844 L1303.9688,288.2031 Q1303.3438,287.625 1302.75,287.3594 Q1302.1563,287.0781 1301.5313,287.0781 Q1300.1875,287.0781 1299.5,288.1563 Q1298.8125,289.2188 1298.8125,291.3125 Q1298.8125,293.4063 1299.5,294.4844 Q1300.1875,295.5469 1301.5313,295.5469 Q1302.1563,295.5469 1302.75,295.2813 Q1303.3438,295 1303.9688,294.4219 L1303.9688,297.1406 Z " fill="#000000"/><text fill="#000000" font-family="sans-serif" font-size="12" lengthAdjust="spacing" textLength="154" x="1315" y="295.6543">ProcessLogoutController</text><line style="stroke:#A80036;stroke-width:1.5;" x1="1287" x2="1471" y1="307.5" y2="307.5"/><line style="stroke:#A80036;stroke-width:1.5;" x1="1287" x2="1471" y1="315.5" y2="315.5"/><ellipse cx="1297" cy="326.5" fill="#84BE84" rx="3" ry="3" style="stroke:#038048;stroke-width:1.0;"/><text fill="#000000" font-family="sans-serif" font-size="11" lengthAdjust="spacing" textLength="57" x="1306" y="329.7104">get(): void</text><!--MD5=[7e553ecada72c96add60e8223d9e4665]
reverse link DataController to apiEurostatController--><path codeLine="22" d="M1734.95,226.33 C1723.82,243.85 1712.71,261.36 1703.79,275.4 " fill="none" id="DataController-backto-apiEurostatController" style="stroke:#A80036;stroke-width:1.0;"/><polygon fill="none" points="1729.13,222.43,1745.76,209.3,1740.95,229.93,1729.13,222.43" style="stroke:#A80036;stroke-width:1.0;"/><!--MD5=[54735d4f2dd53b67a69012d9a702addb]
reverse link DataController to apiWhoController--><path codeLine="31" d="M1858.23,223.88 C1875.8,242.21 1893.54,260.71 1907.63,275.4 " fill="none" id="DataController-backto-apiWhoController" style="stroke:#A80036;stroke-width:1.0;"/><polygon fill="none" points="1853.03,228.58,1844.25,209.3,1863.14,218.89,1853.03,228.58" style="stroke:#A80036;stroke-width:1.0;"/><!--MD5=[4d26590c81a3b0d53c80ecf24616d169]
reverse link AdministrationTableController to AdministrationEurostatController--><path codeLine="35" d="M699.12,209.17 C694.25,229.37 688.99,251.15 684.73,268.83 " fill="none" id="AdministrationTableController-backto-AdministrationEurostatController" style="stroke:#A80036;stroke-width:1.0;"/><polygon fill="none" points="692.32,207.51,703.82,189.71,705.93,210.79,692.32,207.51" style="stroke:#A80036;stroke-width:1.0;"/><!--MD5=[3e653dabe6ab314d420a230caea893a3]
reverse link AdministrationTableController to AdministrationWhoController--><path codeLine="36" d="M789.37,201.22 C820.75,223.58 856.34,248.94 884.48,269 " fill="none" id="AdministrationTableController-backto-AdministrationWhoController" style="stroke:#A80036;stroke-width:1.0;"/><polygon fill="none" points="785.16,206.81,772.93,189.5,793.28,195.41,785.16,206.81" style="stroke:#A80036;stroke-width:1.0;"/><!--MD5=[d487794fd02798ef2fd84787c275a714]
reverse link StatisticsController to EurostatController--><path codeLine="37" d="M253.76,199.47 C233.76,224.67 210.46,254.02 193.52,275.37 " fill="none" id="StatisticsController-backto-EurostatController" style="stroke:#A80036;stroke-width:1.0;"/><polygon fill="none" points="248.41,194.95,266.32,183.63,259.37,203.65,248.41,194.95" style="stroke:#A80036;stroke-width:1.0;"/><!--MD5=[a3323ce23a79ece7083b669b7defe3a1]
reverse link StatisticsController to WhoController--><path codeLine="38" d="M336.57,199.47 C356.73,224.67 380.22,254.02 397.29,275.37 " fill="none" id="StatisticsController-backto-WhoController" style="stroke:#A80036;stroke-width:1.0;"/><polygon fill="none" points="330.93,203.62,323.91,183.63,341.87,194.88,330.93,203.62" style="stroke:#A80036;stroke-width:1.0;"/><!--MD5=[431661804b797b8e40646f40128a06b0]
link AdministrationController to ErrorController--><!--MD5=[8318ea53b31908fcedd1632b58cb371c]
link ErrorController to HomeController--><!--MD5=[1fb26cdeca0542431b32ca4c20144995]
link AdministrationController to ProcessLoginController--><!--MD5=[08a58d2601840c14dfd25ee6be2e5549]
link ProcessLoginController to ProcessLogoutController--><!--MD5=[f13ceddf7671d70baa95dbc28988e009]
@startuml
package controllers {
    package api {
        class AccountController {
            +isPasswordValid(): void
            +changeUsername(): void
            +changePassword(): void
            +validate(): void
        }

        abstract class DataController {
            +get(): void
            +getRow(int $number): void
            +post(): void
            +delete(): void
            +deleteRow(int $number): void
            -validate(): void
        }

        class "EurostatController" as apiEurostatController {
            #getRepository(): EurostatRepository
        }
        DataController <|- - apiEurostatController

        class LoginController {
            +post(): void
        }

        class "WhoController" as apiWhoController {
            #getRepository(): WhoRepository
        }
        DataController <|- - apiWhoController
    }

    package presentation {
        AdministrationTableController <|- - AdministrationEurostatController
        AdministrationTableController <|- - AdministrationWhoController
        StatisticsController <|- - EurostatController
        StatisticsController <|- - WhoController
        class AdministrationController {
            +index(): void
        }
        class AdministrationEurostatController {
            #getRepository(): EurostatRepository
            +getParam(): string
        }
        class AdministrationTableController {
            {abstract}#getRepository(): Repository;
            {abstract}getParam(): string;
            +index(): void
        }
        class AdministrationWhoController {
            #getRepository(): WhoRepository
            +getParam(): string
        }
        class ErrorController {
            +index(string $message): void
        }
        class EurostatController {
            #getRepository(): EurostatRepository
        }
        class HomeController {
            +index(): void
        }
        class LoginController {
            +index(): void
        }
        class ProcessLoginController {
            +post(): void
        }
        class ProcessLogoutController {
            +get(): void
        }
        class StatisticsController {
            {abstract}#getRepository(): Repository
            +index(): void
        }
        class WhoController {
            #getRepository(): WhoRepository
        }
    }
}
@enduml

PlantUML version 1.2021.00(Sun Jan 10 12:25:05 EET 2021)
(LGPL source distribution)
Java Runtime: OpenJDK Runtime Environment
JVM: OpenJDK 64-Bit Server VM
Default Encoding: UTF-8
Language: en
Country: GB
--></g></svg>