<?xml version="1.0" encoding="UTF-8" standalone="no"?><svg xmlns="http://www.w3.org/2000/svg" xmlns:xlink="http://www.w3.org/1999/xlink" contentScriptType="application/ecmascript" contentStyleType="text/css" height="125px" preserveAspectRatio="none" style="width:749px;height:125px;" version="1.1" viewBox="0 0 749 125" width="749px" zoomAndPan="magnify"><defs><filter height="300%" id="f1hdpco86mu06b" width="300%" x="-1" y="-1"><feGaussianBlur result="blurOut" stdDeviation="2.0"/><feColorMatrix in="blurOut" result="blurOut2" type="matrix" values="0 0 0 0 0 0 0 0 0 0 0 0 0 0 0 0 0 0 .4 0"/><feOffset dx="4.0" dy="4.0" in="blurOut2" result="blurOut3"/><feBlend in="SourceGraphic" in2="blurOut3" mode="normal"/></filter></defs><g><!--MD5=[e2a75efa8a0f57c2afae8bf75386f79c]
cluster views--><polygon fill="#FFFFFF" filter="url(#f1hdpco86mu06b)" points="16,6,68,6,75,28.2969,732,28.2969,732,118,16,118,16,6" style="stroke:#000000;stroke-width:1.5;"/><line style="stroke:#000000;stroke-width:1.5;" x1="16" x2="75" y1="28.2969" y2="28.2969"/><text fill="#000000" font-family="sans-serif" font-size="14" font-weight="bold" lengthAdjust="spacing" textLength="46" x="20" y="20.9951">views</text><!--MD5=[c045e12321b83266d36d22b9096c24ea]
class View--><rect codeLine="8" fill="#FEFECE" filter="url(#f1hdpco86mu06b)" height="60.8047" id="View" style="stroke:#A80036;stroke-width:1.5;" width="427" x="288.5" y="41"/><ellipse cx="483.25" cy="57" fill="#A9DCDF" rx="11" ry="11" style="stroke:#A80036;stroke-width:1.0;"/><path d="M483.3594,52.3438 L482.2031,57.4219 L484.5313,57.4219 L483.3594,52.3438 Z M481.875,50.1094 L484.8594,50.1094 L488.2188,62.5 L485.7656,62.5 L485,59.4375 L481.7188,59.4375 L480.9688,62.5 L478.5313,62.5 L481.875,50.1094 Z " fill="#000000"/><text fill="#000000" font-family="sans-serif" font-size="12" font-style="italic" lengthAdjust="spacing" textLength="29" x="503.75" y="61.1543">View</text><line style="stroke:#A80036;stroke-width:1.5;" x1="289.5" x2="714.5" y1="73" y2="73"/><line style="stroke:#A80036;stroke-width:1.5;" x1="289.5" x2="714.5" y1="81" y2="81"/><ellipse cx="299.5" cy="92" fill="#84BE84" rx="3" ry="3" style="stroke:#038048;stroke-width:1.0;"/><text fill="#000000" font-family="sans-serif" font-size="11" lengthAdjust="spacing" text-decoration="underline" textLength="401" x="308.5" y="95.2104">render(string $body, array $args, string $header, string $footer): void</text><polygon fill="#FFFFFF" filter="url(#f1hdpco86mu06b)" points="135,45,239,45,246,67.2969,253,67.2969,253,97.5938,135,97.5938,135,45" style="stroke:#000000;stroke-width:1.5;"/><line style="stroke:#000000;stroke-width:1.5;" x1="135" x2="246" y1="67.2969" y2="67.2969"/><text fill="#000000" font-family="sans-serif" font-size="14" font-weight="bold" lengthAdjust="spacing" textLength="98" x="139" y="59.9951">components</text><polygon fill="#FFFFFF" filter="url(#f1hdpco86mu06b)" points="32,45,86,45,93,67.2969,100,67.2969,100,97.5938,32,97.5938,32,45" style="stroke:#000000;stroke-width:1.5;"/><line style="stroke:#000000;stroke-width:1.5;" x1="32" x2="93" y1="67.2969" y2="67.2969"/><text fill="#000000" font-family="sans-serif" font-size="14" font-weight="bold" lengthAdjust="spacing" textLength="48" x="36" y="59.9951">pages</text><!--MD5=[bf66a95f29e0a05d55a839a741d121f9]
@startuml
package views {
    package components {
    }

    package pages {
    }

    abstract class View {
        + {static} render(string $body, array $args, string $header, string $footer): void
    }
}
@enduml

PlantUML version 1.2021.00(Sun Jan 10 12:25:05 EET 2021)
(LGPL source distribution)
Java Runtime: OpenJDK Runtime Environment
JVM: OpenJDK 64-Bit Server VM
Default Encoding: UTF-8
Language: en
Country: GB
--></g></svg>